<svg xmlns="http://www.w3.org/2000/svg" xmlns:xlink="http://www.w3.org/1999/xlink" width="1080" zoomAndPan="magnify" viewBox="0 0 810 809.999993" height="1080" preserveAspectRatio="xMidYMid meet" version="1.0"><defs><clipPath id="0a911a7767"><path d="M 607 270 L 742.332031 270 L 742.332031 540 L 607 540 Z M 607 270 " clip-rule="nonzero"/></clipPath><clipPath id="55a7a31b82"><path d="M 67.332031 540 L 237 540 L 237 810 L 67.332031 810 Z M 67.332031 540 " clip-rule="nonzero"/></clipPath><clipPath id="c5ec01dcd0"><path d="M 67.332031 0 L 237 0 L 237 270 L 67.332031 270 Z M 67.332031 0 " clip-rule="nonzero"/></clipPath></defs><path fill="#4c5a77" d="M 282.039062 581.511719 L 325.21875 633.488281 L 404.832031 567 L 438.566406 506.25 L 404.832031 479.25 Z M 282.039062 581.511719 " fill-opacity="1" fill-rule="nonzero"/><path fill="#31394a" d="M 484.441406 412.761719 L 404.832031 479.25 L 404.832031 567 L 527.621094 464.738281 Z M 484.441406 412.761719 " fill-opacity="1" fill-rule="nonzero"/><path fill="#4c5a77" d="M 325.21875 176.511719 L 282.039062 228.488281 L 404.832031 330.75 L 438.566406 303.75 L 404.832031 243 Z M 325.21875 176.511719 " fill-opacity="1" fill-rule="nonzero"/><path fill="#31394a" d="M 527.621094 345.261719 L 404.832031 243 L 404.832031 330.75 L 484.441406 397.238281 Z M 527.621094 345.261719 " fill-opacity="1" fill-rule="nonzero"/><path fill="#4dbbeb" d="M 472.296875 405 C 472.296875 479.417969 532.851562 540 607.234375 540 L 640.964844 405 L 607.234375 270 C 532.851562 270 472.296875 330.582031 472.296875 405 Z M 472.296875 405 " fill-opacity="1" fill-rule="nonzero"/><g clip-path="url(#0a911a7767)"><path fill="#2488ff" d="M 607.234375 270 L 607.234375 540 C 681.617188 540 742.167969 479.417969 742.167969 405 C 742.167969 330.582031 681.617188 270 607.234375 270 Z M 607.234375 270 " fill-opacity="1" fill-rule="nonzero"/></g><g clip-path="url(#55a7a31b82)"><path fill="#4dbbeb" d="M 67.496094 675 C 67.496094 749.417969 128.046875 810 202.429688 810 L 236.164062 675 L 202.429688 540 C 128.046875 540 67.496094 600.582031 67.496094 675 Z M 67.496094 675 " fill-opacity="1" fill-rule="nonzero"/></g><path fill="#2488ff" d="M 202.429688 540 L 202.429688 810 C 276.8125 810 337.363281 749.417969 337.363281 675 C 337.363281 600.582031 276.8125 540 202.429688 540 Z M 202.429688 540 " fill-opacity="1" fill-rule="nonzero"/><g clip-path="url(#c5ec01dcd0)"><path fill="#4dbbeb" d="M 67.496094 135 C 67.496094 209.417969 128.046875 270 202.429688 270 L 236.164062 135 L 202.429688 0 C 128.046875 0 67.496094 60.582031 67.496094 135 Z M 67.496094 135 " fill-opacity="1" fill-rule="nonzero"/></g><path fill="#2488ff" d="M 202.429688 0 L 202.429688 270 C 276.8125 270 337.363281 209.417969 337.363281 135 C 337.363281 60.582031 276.8125 0 202.429688 0 Z M 202.429688 0 " fill-opacity="1" fill-rule="nonzero"/></svg>